# xmcd
#
# Track frame offsets: 
#        150
#        15280
#        28227
#        41810
#        62937
#        81717
#        100675
#        124667
#        145765
#        167835
#        181050
#        197797
#        213962
#        229759
#        257065
#
# Disc length: 3803 seconds
#
# Revision: 0
# Processed by: cddbd v1.5.2PL0 Copyright (c) Steve Scherf et al.
# Submitted via: ExactAudioCopy v1.0b3
#
DISCID=d00ed90f
DTITLE=American Dumpster - Rumor Mill
DYEAR=1900
DGENRE=Blues
TTITLE0=Blue
TTITLE1=Birds of Paradise
TTITLE2=Taboo
TTITLE3=Touch
TTITLE4=The Way
TTITLE5=The Quitter
TTITLE6=Tawdry Town
TTITLE7=Surf Song
TTITLE8=I Sleep Alone
TTITLE9=Sweet Thing
TTITLE10=Judas' Sister
TTITLE11=Straight and Narrow
TTITLE12=Keep Truckin'
TTITLE13=The Road
TTITLE14=Hidden Track
EXTD=
EXTT0=
EXTT1=
EXTT2=
EXTT3=
EXTT4=
EXTT5=
EXTT6=
EXTT7=
EXTT8=
EXTT9=
EXTT10=
EXTT11=
EXTT12=
EXTT13=
EXTT14=
PLAYORDER=
